<svg xmlns="http://www.w3.org/2000/svg" viewBox="0 0 34.29 46.63"><defs><style>.cls-1{fill:#fff;}</style></defs><title>icon-Asset 21Bitcoin</title><g id="Layer_2" data-name="Layer 2"><g id="Layer_1-2" data-name="Layer 1"><g id="_45-bitcoin" data-name="45-bitcoin"><path class="cls-1" d="M30.37,23a1.48,1.48,0,0,1-.43-2.34,7.14,7.14,0,0,0,1.73-5.92C31.22,9.88,27.54,8,22.52,7.37a1.49,1.49,0,0,1-1.31-1.48V1.2A1.2,1.2,0,0,0,20,0H18.29a1.5,1.5,0,0,0-1.5,1.5v4A1.5,1.5,0,0,1,15.31,7h-.48a1.5,1.5,0,0,1-1.53-1.5V1.5A1.5,1.5,0,0,0,11.79,0H10.37a1.5,1.5,0,0,0-1.5,1.5V5.76a1.5,1.5,0,0,1-1.49,1.5c-1.26,0-3,0-5.87,0A1.5,1.5,0,0,0,0,8.74V10.2a1.56,1.56,0,0,0,1.52,1.71c2.51,0,3.86.1,4.22,2v19.8c-.23,1.51-1.29,1.55-3.55,1.49A1.5,1.5,0,0,0,.67,36.43l-.33,2a1.57,1.57,0,0,0,1.44,2h5.6a1.5,1.5,0,0,1,1.49,1.5v3.21a1.5,1.5,0,0,0,1.5,1.5h1.42a1.5,1.5,0,0,0,1.5-1.5V42a1.5,1.5,0,0,1,1.51-1.5h.5A1.49,1.49,0,0,1,16.79,42v2.74c0,1.18.67,1.84,1.5,1.84h1.42a1.5,1.5,0,0,0,1.5-1.5v-3.3a1.5,1.5,0,0,1,1.37-1.49c6.64-.56,11-2.61,11.65-9.15C34.63,26.79,33.08,24.31,30.37,23Zm-17-9.24a1.5,1.5,0,0,1,1.46-1.5c3.23-.07,8.84,0,8.84,4.45,0,4.2-5.59,4.44-8.82,4.41a1.5,1.5,0,0,1-1.48-1.5Zm0,21.46V27a1.5,1.5,0,0,1,1.47-1.5c3.77-.08,10.66-.06,10.66,4.88,0,5.48-9.14,4.85-12.12,4.85Z"/></g></g></g></svg>