<svg xmlns="http://www.w3.org/2000/svg" viewBox="0 0 53.39 48.54"><defs><style>.cls-1{fill:#979aaa;}</style></defs><title>icon-Asset 7charts</title><g id="Layer_2" data-name="Layer 2"><g id="Layer_1-2" data-name="Layer 1"><g id="icons"><g id="statistics"><path class="cls-1" d="M11.56,24.27H3a3,3,0,0,0-3,3V45.54a3,3,0,0,0,3,3h8.56a3,3,0,0,0,3-3V27.27A3,3,0,0,0,11.56,24.27Z"/><path class="cls-1" d="M31,0H22.42a3,3,0,0,0-3,3V45.54a3,3,0,0,0,3,3H31a3,3,0,0,0,3-3V3A3,3,0,0,0,31,0Z"/><path class="cls-1" d="M50.39,14.56H41.83a3,3,0,0,0-3,3v28a3,3,0,0,0,3,3h8.56a3,3,0,0,0,3-3v-28A3,3,0,0,0,50.39,14.56Z"/></g></g></g></g></svg>