<svg xmlns="http://www.w3.org/2000/svg" viewBox="0 0 48.12 48.21"><defs><style>.cls-1{fill:#fff;}.cls-2{fill:#979aaa;}.cls-3{fill:none;}</style></defs><title>icon-Asset 6currencies</title><g id="Layer_2" data-name="Layer 2"><g id="Layer_1-2" data-name="Layer 1"><g id="g2473"><path class="cls-1" d="M23.64,15.81V14.74C22.79,14.89,22.81,15.79,23.64,15.81Z"/><path class="cls-1" d="M24.83,17.26v1.21C26,18.31,25.86,17.29,24.83,17.26Z"/><path class="cls-2" d="M24.82,16V14.72a.82.82,0,0,1,.69.76h1.23a2,2,0,0,0-1.93-2v-.85H23.64v.85c-.34,0-1.89.44-1.89,1.84,0,1.24,1.12,1.58,1.89,1.7v1.41a1.06,1.06,0,0,1-.75-1H21.65a2.38,2.38,0,0,0,2,2.15v.86h1.18v-.85a2.15,2.15,0,0,0,2-2C26.86,16.47,25.75,16.11,24.82,16Zm-1.17-.21c-.83,0-.85-.92,0-1.07Zm1.19,2.67V17.26C25.86,17.29,26,18.31,24.83,18.48Z"/><path class="cls-3" d="M41,7.4H7.25A1.75,1.75,0,0,0,5.5,9.15V24.09a1.75,1.75,0,0,0,1.75,1.75H27.31a4.75,4.75,0,1,1,9.34,0H41a1.75,1.75,0,0,0,1.75-1.75V9.15A1.75,1.75,0,0,0,41,7.4Z"/><circle class="cls-3" cx="24.3" cy="16.7" r="4.75"/><path class="cls-2" d="M32.15,21.38a2,2,0,0,0-1.88,1h3.63A1.91,1.91,0,0,0,32.15,21.38Z"/><path class="cls-2" d="M39.2,10.91H9V22.34H28a4.75,4.75,0,0,1,7.86,0H39.2ZM24.3,21.45A4.75,4.75,0,1,1,29,16.7,4.75,4.75,0,0,1,24.3,21.45Z"/><path class="cls-1" d="M34.27,23.71H33c-.08-.58-.31-1.06-.86-1.06-.83,0-.83.52-.83.7a1.68,1.68,0,0,0,.2.85h1.08v1h-.88a1.87,1.87,0,0,1,0,.63h4.94a4.61,4.61,0,0,0-.74-3.51h-2A2.77,2.77,0,0,1,34.27,23.71Z"/><path class="cls-1" d="M27.22,25a4.75,4.75,0,0,0,.08.84h3.1a1.23,1.23,0,0,0,0-.62h-.92v-1h.74a2.06,2.06,0,0,1-.2-1,1.78,1.78,0,0,1,.24-.8H28A4.73,4.73,0,0,0,27.22,25Z"/><path class="cls-2" d="M31.73,25.22h.88v-1H31.53a1.68,1.68,0,0,1-.2-.85c0-.18,0-.7.83-.7.54,0,.77.48.86,1.06h1.25a2.11,2.11,0,0,0-2.12-2.32A1.89,1.89,0,0,0,30,23.14a2.06,2.06,0,0,0,.2,1h-.74v1h.92a1.23,1.23,0,0,1,0,.62h1.3A1.87,1.87,0,0,0,31.73,25.22Z"/><path class="cls-2" d="M29.81,27.89h4.4v-1H31.27c0-.23.32-.51.43-1h-1.3a1.63,1.63,0,0,1-.6,1Z"/><path id="path1513" class="cls-2" d="M14.34,31h1.2v.6a1.45,1.45,0,0,1,1.2-.62v1.14c-1,.12-1.2.64-1.2,1.29v1.43h-1.2Z"/><path id="path1515" class="cls-2" d="M14,31v1.13h-.85v2.71H11.95v-2.7h-.72V31h.72V30a1.72,1.72,0,0,1,1.81-1.58c1.46,0,1.77,1.15,1.77,2.11H14.34c0-.62-.08-.94-.57-.94s-.61.36-.61.93V31Z"/><path class="cls-3" d="M41,7.4H7.25A1.75,1.75,0,0,0,5.5,9.15V24.09a1.75,1.75,0,0,0,1.75,1.75H27.31a4.74,4.74,0,0,0,9.34,0H41a1.75,1.75,0,0,0,1.75-1.75V9.15A1.75,1.75,0,0,0,41,7.4Z"/><path class="cls-2" d="M42.82,0S5.38,0,5.39,0C1.94,0,0,1.79,0,5.43V43c0,3.41,1.74,5.2,5.19,5.2H42.93c3.45,0,5.19-1.7,5.19-5.2V5.43C48.12,1.88,46.38,0,42.82,0Zm-29,36.64a4.75,4.75,0,1,1,4.75-4.75A4.75,4.75,0,0,1,13.86,36.64ZM28.8,42a4.75,4.75,0,1,1,4.75-4.75A4.75,4.75,0,0,1,28.8,42Zm13.9-17.94A1.75,1.75,0,0,1,41,25.84H36.64a4.74,4.74,0,0,1-9.34,0H7.25A1.75,1.75,0,0,1,5.5,24.09V9.15A1.75,1.75,0,0,1,7.25,7.4H41a1.75,1.75,0,0,1,1.75,1.75Z"/><path id="path1525" class="cls-2" d="M26.17,34.4h1.38l1.28,2.26,1.39-2.26H31.5L29.44,38H31v1.16H29.5v1.63H28.24V39.21H26.65V38.07h1.6Z"/></g></g></g></svg>