<svg xmlns="http://www.w3.org/2000/svg" viewBox="0 0 36 36"><defs><style>.cls-1{fill:#4f66af;}</style></defs><title>icon-Asset 12dashboard-selected</title><g id="Layer_2" data-name="Layer 2"><g id="Layer_1-2" data-name="Layer 1"><path class="cls-1" d="M3,20H13a3,3,0,0,0,3-3V3a3,3,0,0,0-3-3H3A3,3,0,0,0,0,3V17A3,3,0,0,0,3,20ZM3,36H13a3,3,0,0,0,3-3V27a3,3,0,0,0-3-3H3a3,3,0,0,0-3,3v6A3,3,0,0,0,3,36Zm20,0H33a3,3,0,0,0,3-3V19a3,3,0,0,0-3-3H23a3,3,0,0,0-3,3V33A3,3,0,0,0,23,36ZM20,3V9a3,3,0,0,0,3,3H33a3,3,0,0,0,3-3V3a3,3,0,0,0-3-3H23A3,3,0,0,0,20,3Z"/></g></g></svg>