<svg xmlns="http://www.w3.org/2000/svg" viewBox="0 0 47.76 51.71"><defs><style>.cls-1{fill:#fff;}</style></defs><title>icon-Asset 22Doge-coin</title><g id="Layer_2" data-name="Layer 2"><g id="Layer_1-2" data-name="Layer 1"><path id="DOGE_alt" data-name="DOGE alt" class="cls-1" d="M21,0H7.6A1.5,1.5,0,0,0,6.1,1.5v20A1.5,1.5,0,0,1,4.6,23H1.5A1.5,1.5,0,0,0,0,24.52v2.64a1.5,1.5,0,0,0,1.5,1.5H4.6a1.5,1.5,0,0,1,1.5,1.5v20a1.5,1.5,0,0,0,1.5,1.5H23.46c1.09.08,24.31,1.39,24.31-25.41C47.76-.73,24.48,0,21,0ZM23,42.13H15.85V28.66H25.1a1.5,1.5,0,0,0,1.5-1.5V24.52A1.5,1.5,0,0,0,25.1,23H15.85V9.55h6.83c2.55,0,15.41,1,15.43,16.9S24.86,42.13,23,42.13Z"/></g></g></svg>