<svg xmlns="http://www.w3.org/2000/svg" viewBox="0 0 24.26 20.39"><defs><style>.cls-1{fill:#979aaa;}</style></defs><title>icon-Asset 24exchange</title><g id="Layer_2" data-name="Layer 2"><g id="Layer_1-2" data-name="Layer 1"><path class="cls-1" d="M3.13,10.2H2A2,2,0,0,0,.34,13.31l4.13,6.2a2,2,0,0,0,3.33,0l4.13-6.2a2,2,0,0,0-1.66-3.11H9.13v-8a2,2,0,0,0-2-2h-2a2,2,0,0,0-2,2Zm12,0v8a2,2,0,0,0,2,2h2a2,2,0,0,0,2-2v-8h1.13a2,2,0,0,0,1.66-3.11L19.8.89a2,2,0,0,0-3.33,0l-4.13,6.2A2,2,0,0,0,14,10.2Z"/></g></g></svg>