<svg xmlns="http://www.w3.org/2000/svg" viewBox="0 0 38.33 38.98"><defs><style>.cls-1{fill:#979aaa;}</style></defs><title>icon-Asset 11food</title><g id="Layer_2" data-name="Layer 2"><g id="Layer_1-2" data-name="Layer 1"><path class="cls-1" d="M33.6,18.92a2.43,2.43,0,0,0,2.2-1.41L22.24,14H3A2.44,2.44,0,0,0,.52,16.4v.09A2.44,2.44,0,0,0,3,18.92Z"/><path class="cls-1" d="M35.77,15a7.53,7.53,0,0,0-5.23-9.07L22.37,3.75A3.35,3.35,0,0,0,19.91.52a3.18,3.18,0,0,0-3.65,1.63L8.91.23A6.79,6.79,0,0,0,7.15,0a7.23,7.23,0,0,0-7,5.69L0,6.46l35.58,9.31Z"/><path class="cls-1" d="M38.33,21.48H34.69l.09-1.13a4,4,0,0,1-1.18.2H3a4,4,0,0,1-1.18-.19L3.27,38.23a.81.81,0,0,0,.81.75h28.4a.81.81,0,0,0,.81-.75L34.56,23.1h3.78ZM11.72,30.38a2.29,2.29,0,0,0-.37,2.75.81.81,0,0,1-1.41.81,3.92,3.92,0,0,1,.63-4.7,2.29,2.29,0,0,0,.37-2.75l-2.17-3.8a.81.81,0,1,1,1.41-.81l2.17,3.8a3.92,3.92,0,0,1-.63,4.7Zm8.35,0a2.29,2.29,0,0,0-.37,2.75.81.81,0,0,1-1.41.81,3.91,3.91,0,0,1,.63-4.7,2.29,2.29,0,0,0,.37-2.75l-2.17-3.8a.81.81,0,0,1,1.41-.81l2.17,3.8a3.91,3.91,0,0,1-.63,4.7Zm8.35,0a2.29,2.29,0,0,0-.37,2.75.81.81,0,0,1-1.41.81,3.92,3.92,0,0,1,.63-4.7,2.29,2.29,0,0,0,.37-2.75l-2.17-3.8a.81.81,0,0,1,1.41-.81l2.17,3.8a3.91,3.91,0,0,1-.63,4.7Z"/></g></g></svg>