<svg xmlns="http://www.w3.org/2000/svg" viewBox="0 0 42.82 41.43"><defs><style>.cls-1{fill:#979aaa;}</style></defs><title>icon-Asset 6health</title><g id="Layer_2" data-name="Layer 2"><g id="Layer_1-2" data-name="Layer 1"><path class="cls-1" d="M1.09,40.76a.42.42,0,0,1-.42-.42V10.75A1.59,1.59,0,0,1,2.26,9.17h8.36V2.68A2,2,0,0,1,11,1.53,2,2,0,0,1,12.74.69c.2,0,1.21,0,4.85,0l12.15,0H30a2.27,2.27,0,0,1,1.48.48,1.89,1.89,0,0,1,.74,1.53c0,.19,0,1.18,0,5.81v.67h8a2,2,0,0,1,2,2V40.35a.42.42,0,0,1-.42.42H1.09Zm15.36-6.83a1.76,1.76,0,0,0,1.76,1.76h6.42a1.76,1.76,0,0,0,1.76-1.76V30.12h3.82a1.76,1.76,0,0,0,1.76-1.76V21.93a1.76,1.76,0,0,0-1.76-1.76H26.38V16.37a1.76,1.76,0,0,0-1.76-1.76H18.2a1.76,1.76,0,0,0-1.76,1.76v3.81H12.63a1.76,1.76,0,0,0-1.76,1.76v6.43a1.76,1.76,0,0,0,1.76,1.76h3.82ZM13.89,2.59a1.25,1.25,0,0,0-1.35,1.28v5.3H30.27V4a1.41,1.41,0,0,0-.37-1,1.28,1.28,0,0,0-1-.38H14.14Z"/><path class="cls-1" d="M17.59,1.34l12.14,0H30a1.61,1.61,0,0,1,1,.3,1.27,1.27,0,0,1,.53,1.09c0,.15,0,1,0,5.75V9.84h10V40.09H1.34V9.84h9.95V2.63a1.37,1.37,0,0,1,.25-.69,1.33,1.33,0,0,1,1.22-.58c.2,0,1.2,0,4.83,0m-5.72,8.5H30.94V4a2.08,2.08,0,0,0-.56-1.45,2,2,0,0,0-1.44-.58H14.18l-.29,0a1.92,1.92,0,0,0-2,2v6m3.91,9.67H12.63a2.43,2.43,0,0,0-2.43,2.43v6.43a2.43,2.43,0,0,0,2.43,2.43h3.15v3.15a2.43,2.43,0,0,0,2.43,2.43h6.42A2.43,2.43,0,0,0,27,33.94V30.79h3.15a2.43,2.43,0,0,0,2.43-2.43V21.93a2.43,2.43,0,0,0-2.43-2.43H27V16.37a2.43,2.43,0,0,0-2.42-2.43H18.2a2.43,2.43,0,0,0-2.43,2.43v3.14M17.59,0c-2.52,0-4.53,0-4.87,0a2.65,2.65,0,0,0-2.24,1.1,2.64,2.64,0,0,0-.53,1.56V8.5H3a3,3,0,0,0-3,3V38.43a3,3,0,0,0,3,3H39.82a3,3,0,0,0,3-3V11.5a3,3,0,0,0-3-3h-7c0-1.76,0-5.38,0-5.86a2.53,2.53,0,0,0-.95-2A2.9,2.9,0,0,0,30,0H17.59ZM13.21,8.5V3.87c0-.53.42-.61.68-.61l.2,0H28.94A.64.64,0,0,1,29.6,4V8.5H13.21Zm-.58,21a1.09,1.09,0,0,1-1.09-1.09V21.93a1.09,1.09,0,0,1,1.09-1.09h4.49V16.37a1.08,1.08,0,0,1,1.09-1.09h6.42a1.08,1.08,0,0,1,1.09,1.09v4.47h4.49a1.09,1.09,0,0,1,1.09,1.09v6.43a1.09,1.09,0,0,1-1.09,1.09H25.71v4.49A1.08,1.08,0,0,1,24.62,35H18.2a1.08,1.08,0,0,1-1.09-1.09V29.45Z"/></g></g></svg>