<?xml version="1.0" encoding="utf-8"?>
<!-- Generator: Adobe Illustrator 21.1.0, SVG Export Plug-In . SVG Version: 6.00 Build 0)  -->
<svg version="1.1" id="Layer_1" xmlns="http://www.w3.org/2000/svg" xmlns:xlink="http://www.w3.org/1999/xlink" x="0px" y="0px"
	 viewBox="0 0 27.6 43.2" style="enable-background:new 0 0 27.6 43.2;" xml:space="preserve">
<style type="text/css">
	.st0{fill:#59CCFB;}
</style>
<title>icon-Asset 15down-arrow</title>
<g id="Layer_2">
	<g id="Layer_1-2">
		<path class="st0" d="M15.4,42.3L27.3,23c0.6-0.9,0.3-2.1-0.6-2.7C26.4,20.1,26,20,25.7,20h-6.5V1.5c0-0.8-0.7-1.5-1.5-1.5
			c0,0,0,0,0,0H10C9.2,0,8.5,0.7,8.4,1.5c0,0,0,0,0,0V20H1.9c-1.1,0-1.9,0.9-2,1.9c0,0.4,0.1,0.8,0.3,1.1l11.8,19.3
			c0.6,0.9,1.7,1.2,2.6,0.6C15,42.8,15.3,42.6,15.4,42.3z"/>
	</g>
</g>
</svg>
