<?xml version="1.0" encoding="utf-8"?>
<!-- Generator: Adobe Illustrator 21.1.0, SVG Export Plug-In . SVG Version: 6.00 Build 0)  -->
<svg version="1.1" id="Layer_1" xmlns="http://www.w3.org/2000/svg" xmlns:xlink="http://www.w3.org/1999/xlink" x="0px" y="0px"
	 viewBox="0 0 27.6 43.2" style="enable-background:new 0 0 27.6 43.2;" xml:space="preserve">
<style type="text/css">
	.st0{fill:#4162FF;}
</style>
<title>icon-Asset 14up-arrow</title>
<g id="Layer_2">
	<g id="Layer_1-2">
		<path class="st0" d="M12.2,0.9L0.3,20.3c-0.6,0.9-0.3,2.1,0.6,2.7c0.3,0.2,0.7,0.3,1.1,0.3h6.5v18.4c0,0.8,0.7,1.5,1.5,1.6
			c0,0,0,0,0.1,0h7.6c0.8,0,1.5-0.7,1.5-1.5c0,0,0,0,0,0V23.2h6.5c1.1,0,1.9-0.9,2-1.9c0-0.4-0.1-0.8-0.3-1.1L15.4,0.9
			c-0.6-0.9-1.7-1.2-2.6-0.6C12.5,0.4,12.3,0.7,12.2,0.9z"/>
	</g>
</g>
</svg>
