<svg xmlns="http://www.w3.org/2000/svg" viewBox="0 0 35.01 39.82"><defs><style>.cls-1{fill:#979aaa;}</style></defs><title>icon-Asset 13notification</title><g id="Layer_2" data-name="Layer 2"><g id="Layer_1-2" data-name="Layer 1"><path class="cls-1" d="M32.62,32.91A2.39,2.39,0,0,0,35,30a2.46,2.46,0,0,0-2.44-1.91.42.42,0,0,1-.43-.43l-.8-8.08A15.42,15.42,0,0,0,27.2,8.84a12.88,12.88,0,0,0-5.63-3.45A.81.81,0,0,1,21,4.33a1.9,1.9,0,0,0,.05-1.43A3.7,3.7,0,0,0,18.17.08a3.67,3.67,0,0,0-4.41,3.61c0,.37.05.27.16.58a.85.85,0,0,1-.53,1.06c-5.9,1.81-9.72,7.54-9.72,14.29L2.92,27.7a.46.46,0,0,1-.43.43A2.41,2.41,0,0,0,.05,30a2.37,2.37,0,0,0,2.34,2.87Z"/><path class="cls-1" d="M12.59,35c.05.05.05.16.11.21a4.79,4.79,0,0,0,9.56,0c.05-.05.05-.11.11-.21Z"/></g></g></svg>