<svg xmlns="http://www.w3.org/2000/svg" viewBox="0 0 55.79 53.94"><defs><style>.cls-1{fill:#979aaa;}</style></defs><title>icon-Asset 3savings</title><g id="Layer_2" data-name="Layer 2"><g id="Layer_1-2" data-name="Layer 1"><path class="cls-1" d="M46.93,23.62a14,14,0,0,0,5.49-7.51q.42.57.79,1.18a19.22,19.22,0,0,1,2.59,10.15A19.82,19.82,0,0,1,51.1,40.66a18.79,18.79,0,0,1-3.24,3l-.44.31v7a3,3,0,0,1-3,3H39.06a4.18,4.18,0,0,1-4.18-4.18H29.29a4.18,4.18,0,0,1-4.18,4.18H19.74a3,3,0,0,1-3-3V47.16c-.39-.13-.82-.29-1.3-.49a18,18,0,0,1-5.76-3.8A27.51,27.51,0,0,1,5.2,36.93a1.37,1.37,0,0,0-.92-.72A5.13,5.13,0,0,1,0,31.15V26.26a4.81,4.81,0,0,1,4-4.74,1.11,1.11,0,0,0,.77-.79,15.29,15.29,0,0,1,3.5-5.92,22.16,22.16,0,0,1,4.63-3.48c.38-.22.73-.4,1-.56v-8a2.85,2.85,0,0,1,4.85-2A28.31,28.31,0,0,0,22.54,4,10,10,0,0,0,26.6,5.82a14,14,0,0,0-1.26,8.86,7.16,7.16,0,0,0,4.47,5.15L40.12,24.1A7.16,7.16,0,0,0,46.93,23.62Zm-32-.94a2.86,2.86,0,0,0,4-4,1.44,1.44,0,0,0-.4-.4,2.86,2.86,0,0,0-4,4A1.44,1.44,0,0,0,14.93,22.68Z"/><path class="cls-1" d="M45.36,21.31a11.17,11.17,0,0,0,4.76-7.76h0a11.16,11.16,0,1,0-22,.61,3.55,3.55,0,0,0,.36,1,4,4,0,0,0,.5.73,5.18,5.18,0,0,0,1.93,1.35l10.31,4.27A4.39,4.39,0,0,0,45.36,21.31Z"/></g></g></svg>