<svg xmlns="http://www.w3.org/2000/svg" viewBox="0 0 43.38 43.38"><defs><style>.cls-1{fill:#979aaa;}</style></defs><title>icon-Asset 9setting</title><g id="Layer_2" data-name="Layer 2"><g id="Layer_1-2" data-name="Layer 1"><path class="cls-1" d="M18.59,0a2.06,2.06,0,0,0-2.07,2.07V4.91a17.42,17.42,0,0,0-3.07,1.26l-2-2a2.06,2.06,0,0,0-2.92,0L4.16,8.54a2.06,2.06,0,0,0,0,2.92l2,2a17.39,17.39,0,0,0-1.26,3.07H2.07A2.06,2.06,0,0,0,0,18.59v6.2a2.06,2.06,0,0,0,2.07,2.07H4.91a17.42,17.42,0,0,0,1.26,3.07l-2,2a2.06,2.06,0,0,0,0,2.92l4.37,4.37a2.06,2.06,0,0,0,2.92,0l2-2a17.39,17.39,0,0,0,3.07,1.26v2.84a2.06,2.06,0,0,0,2.07,2.07h6.2a2.06,2.06,0,0,0,2.07-2.07V38.48a17.42,17.42,0,0,0,3.05-1.26l2,2a2.06,2.06,0,0,0,2.92,0l4.39-4.37a2.06,2.06,0,0,0,0-2.92l-2-2a17.45,17.45,0,0,0,1.27-3.05h2.84a2.06,2.06,0,0,0,2.07-2.07v-6.2a2.06,2.06,0,0,0-2.07-2.07H38.48a17.48,17.48,0,0,0-1.27-3.05l2-2a2.06,2.06,0,0,0,0-2.92L34.83,4.16a2.06,2.06,0,0,0-2.92,0l-2,2a17.4,17.4,0,0,0-3-1.26V2.07A2.06,2.06,0,0,0,24.79,0Zm3.1,11.88a9.81,9.81,0,1,1-9.81,9.81,9.81,9.81,0,0,1,9.81-9.81Z"/></g></g></svg>