<svg xmlns="http://www.w3.org/2000/svg" viewBox="0 0 40.88 38.8"><defs><style>.cls-1{fill:#979aaa;}</style></defs><title>icon-Asset 2wallet-light-grey</title><g id="Layer_2" data-name="Layer 2"><g id="Layer_1-2" data-name="Layer 1"><path class="cls-1" d="M0,4.85C0,2.18,1.84,0,4.09,0H34.75a2.26,2.26,0,0,1,2,2.43V4.85H4.09V7.28H38.84a2.26,2.26,0,0,1,2,2.43V34c0,2.68-1.83,4.85-4.09,4.85H4.09C1.83,38.8,0,36.63,0,34ZM33.73,26.68A3.39,3.39,0,0,0,36.79,23a3.39,3.39,0,0,0-3.07-3.64A3.39,3.39,0,0,0,30.66,23,3.39,3.39,0,0,0,33.73,26.68Z"/></g></g></svg>